<?xml version="1.0" encoding="UTF-8" standalone="no"?>
<svg
   width="48"
   height="26"
   version="1.1"
   id="svg10"
   sodipodi:docname="toggle-off-custom.svg"
   inkscape:version="1.2 (dc2aedaf03, 2022-05-15)"
   xmlns:inkscape="http://www.inkscape.org/namespaces/inkscape"
   xmlns:sodipodi="http://sodipodi.sourceforge.net/DTD/sodipodi-0.dtd"
   xmlns="http://www.w3.org/2000/svg"
   xmlns:svg="http://www.w3.org/2000/svg">
  <defs
     id="defs14" />
  <sodipodi:namedview
     id="namedview12"
     pagecolor="#ffffff"
     bordercolor="#000000"
     borderopacity="0.25"
     inkscape:showpageshadow="2"
     inkscape:pageopacity="0.0"
     inkscape:pagecheckerboard="0"
     inkscape:deskcolor="#d1d1d1"
     showgrid="false"
     inkscape:zoom="37.979167"
     inkscape:cx="24"
     inkscape:cy="12.967636"
     inkscape:window-width="2017"
     inkscape:window-height="1300"
     inkscape:window-x="26"
     inkscape:window-y="23"
     inkscape:window-maximized="0"
     inkscape:current-layer="svg10" />
  <g
     transform="translate(0 -291.18)"
     id="g8">
    <rect
       ry="11"
       rx="11"
       y="299.18"
       x="30"
       height="10"
       width="10"
       style="fill:none;fill-opacity:1;stroke:#f8f7f7;stroke-width:2;stroke-miterlimit:4;stroke-dasharray:none;stroke-opacity:1;marker:none"
       fill="#f8f7f7"
       stroke-linecap="round"
       stroke-linejoin="round"
       id="rect2" />
    <rect
       style="fill:#fff;stroke:none;stroke-width:1;marker:none;fill-opacity:.15000001"
       width="48"
       height="26"
       x="-48"
       y="291.18"
       ry="13"
       fill="#3081e3"
       rx="13"
       transform="scale(-1 1)"
       id="rect4" />
    <rect
       ry="11"
       rx="11"
       y="293.18"
       x="-24"
       height="22"
       width="22"
       style="stroke:none;stroke-width:.999999;marker:none"
       fill="#f8f7f7"
       transform="scale(-1 1)"
       id="rect6" />
  </g>
  <path
     style="fill:#000000;stroke-width:0.0263302"
     d="M 12.506857,23.982451 C 10.256669,23.874324 8.1315565,23.109272 6.3550475,21.767769 5.6066278,21.202611 4.8117299,20.40831 4.2353744,19.649685 4.0151441,19.359808 3.6097432,18.7458 3.4308379,18.431157 2.7250798,17.189935 2.2613711,15.761164 2.0763769,14.257817 2.0176633,13.780684 2.0084333,12.327241 2.0612445,11.874931 2.2971367,9.854597 2.9384287,8.1612425 4.0655256,6.5825562 4.5366181,5.9227129 5.2794231,5.114484 5.8716402,4.6173642 7.6886308,3.0921435 9.8116832,2.2255208 12.1903,2.038109 c 0.490273,-0.038629 1.606048,-0.016922 2.080682,0.040478 2.535813,0.3066698 4.78075,1.4006786 6.547994,3.1909869 0.747126,0.7568771 1.286234,1.4730376 1.791121,2.3793568 0.723984,1.2996175 1.157902,2.6875123 1.327356,4.2455703 0.08158,0.750089 0.05735,1.877623 -0.05756,2.679278 -0.542214,3.782431 -3.003793,7.002176 -6.518472,8.526161 -1.465783,0.635571 -3.248652,0.95968 -4.854561,0.882511 z"
     id="path191" />
  <path
     style="fill:#000000;stroke-width:0.0263302"
     d="m 34.453099,18.970369 c -1.040639,-0.09786 -2.172784,-0.521082 -2.967243,-1.109219 -1.160787,-0.859328 -1.956932,-2.040425 -2.297292,-3.408079 -0.115884,-0.465648 -0.164603,-0.840784 -0.174107,-1.340619 -0.01965,-1.033184 0.186601,-1.924959 0.660618,-2.8564 0.862972,-1.6957382 2.490526,-2.8700408 4.408101,-3.1805043 0.405414,-0.065638 1.487514,-0.063488 1.870746,0.00372 0.649829,0.1139576 1.177295,0.2862133 1.741285,0.5686553 1.371528,0.6868511 2.431272,1.8830248 2.940112,3.318618 0.249574,0.704124 0.338403,1.216208 0.344838,1.987932 0.0084,1.00398 -0.185681,1.847209 -0.630175,2.738343 -0.588345,1.179532 -1.503489,2.088007 -2.694681,2.675043 -0.596088,0.293762 -1.144773,0.465089 -1.8067,0.564146 -0.337511,0.05051 -1.056258,0.07027 -1.395502,0.03837 z m 1.421832,-2.060912 c 0.393914,-0.0939 0.579421,-0.16051 0.906493,-0.325491 0.573243,-0.289155 0.952066,-0.594042 1.343203,-1.081048 1.108219,-1.379845 1.173245,-3.352887 0.158291,-4.802917 C 38.082173,10.413203 37.58013,9.9108815 37.298445,9.7149812 35.950284,8.7773902 34.147411,8.7585507 32.776209,9.667725 c -0.722967,0.479362 -1.277215,1.197513 -1.564828,2.02758 -0.145678,0.420434 -0.206477,0.79923 -0.207081,1.290173 -9.25e-4,0.751078 0.145739,1.328688 0.499379,1.966717 0.190745,0.344137 0.364263,0.568464 0.696312,0.900203 0.619236,0.618659 1.409581,1.003113 2.318934,1.128019 0.04344,0.006 0.304114,0.0073 0.579265,0.0029 0.424285,-0.0067 0.542268,-0.01796 0.776741,-0.07386 z"
     id="path193" />
</svg>
